# xmcd
#
# Track frame offsets: 
#        150
#        12047
#        30295
#        42802
#        55792
#        67252
#        82280
#        92667
#        106897
#        118517
#        131477
#        142990
#        160500
#        174617
#        185400
#        205250
#
# Disc length: 2889 seconds
#
# Revision: 3
# Processed by: cddbd v1.5.2PL0 Copyright (c) Steve Scherf et al.
# Submitted via: ExactAudioCopy v0.95b3
#
DISCID=ce0b4710
DTITLE=Ralph Stanley - Clinch Mountain Sweethearts
DYEAR=2001
DGENRE=Bluegrass
TTITLE0=Riding That Midnight Train (with Iris DeMent)
TTITLE1=Will You Miss Me (with Pam Tillis)
TTITLE2=Little Willie (with Patty Mitchell)
TTITLE3=Oh Death (with Gillian Welch)
TTITLE4=Loving You Too Well (with Dolly Parton)
TTITLE5=The Memory Of Your Smile (with Maria Muldaur)
TTITLE6=Are You Tired Of Me Darling (with Sara Evans)
TTITLE7=Weeping Willow (with Joan Baez)
TTITLE8=I'll Never Grow Tired Of You (with Kristi Stanley)
TTITLE9=Rank Stranger (with Gail Davies)
TTITLE10=Trust Each Other (with Iris DeMent)
TTITLE11=Angel Band (with Chely Wright)
TTITLE12=You Win Again (with Melba Montgomery)
TTITLE13=I'm Ready To Go (with Jeannie Seely)
TTITLE14=Farther Along (with Lucinda Williams)
TTITLE15=I'll Remember You Love In My Prayers (with Valerie Smith)
EXTD=
EXTT0=
EXTT1=
EXTT2=
EXTT3=
EXTT4=
EXTT5=
EXTT6=
EXTT7=
EXTT8=
EXTT9=
EXTT10=
EXTT11=
EXTT12=
EXTT13=
EXTT14=
EXTT15=
PLAYORDER=
